<?xml version="1.0" encoding="utf-8"?>
<!-- Generator: Adobe Illustrator 22.0.0, SVG Export Plug-In . SVG Version: 6.00 Build 0)  -->
<svg version="1.1" id="Layer_1" xmlns="http://www.w3.org/2000/svg" xmlns:xlink="http://www.w3.org/1999/xlink" x="0px" y="0px"
	 viewBox="0 0 398.3 336.7" style="enable-background:new 0 0 398.3 336.7;" xml:space="preserve">
<style type="text/css">
	.st0{fill:#82EF32;}
	.st1{opacity:0.5;fill:url(#SVGID_1_);}
	.st2{fill:#77DC2D;}
	.st3{fill:#D9E021;}
	.st4{fill:#22B573;}
</style>
<g>
	<path d="M189.8,336.6c-29.3,0-58.7,0-88,0c-10,0-13.3-4.9-9.3-14c1.5-3.5,3.1-7,4.6-10.5c2.4-5.7,6.7-9.2,12.8-8.3
		c8.6,1.2,13.7-2.5,18.7-8.9c9.5-12.2,19.7-23.9,29.7-35.8c0.7-0.9,1.5-1.8,2.2-2.7c5-6.2,5.1-6.2,0.6-12.5
		c-3.3-4.7-5.9-9.7-6.7-15.4c-0.3-2.1-1.3-2.8-3.3-2.7c-6.5,0.1-13,0-19.5,0c-1.7,0-2.7,0.5-3.2,2.3c-3.2,10.4-10.7,17.3-19.9,22.1
		c-29.4,15.6-59.1,15.3-88.3-0.7c-7.8-4.3-14.3-10.4-17.8-18.9c-3.5-8.3-1.1-11.9,7.9-11.9c46.2,0,92.3,0,138.5,0.1c3.9,0,5.2-1,6-5
		c3.1-16,17.9-27.9,34.3-28.2c17.3-0.3,32.5,10.7,36.2,27c1.1,4.7,2.7,6.2,7.7,6.2c46-0.2,92-0.1,138-0.1c8.7,0,11,3.4,7.7,11.6
		c-3.2,7.9-8.9,13.8-16,18c-31,18-62.3,18-93.3-0.1c-7.7-4.5-13.8-11-16.7-19.9c-0.6-1.9-1.5-2.7-3.5-2.6c-6.5,0.1-13,0.1-19.5,0
		c-1.9,0-3.1,0.4-3.5,2.5c-1.4,7.6-4.7,14.2-10.3,19.5c-1.6,1.5-1,2.4,0.1,3.7c14,16.7,28,33.5,42,50.2c1.2,1.4,2.6,1.9,4.3,1.9
		c2.8-0.1,5.7,0,8.5,0c6-0.1,10.1,2.8,12.5,8.1c1.9,4.2,3.8,8.5,5.5,12.8c2.6,6.6-0.7,11.8-7.9,11.9c-6.2,0.2-12.3,0-18.5,0
		C238.1,336.6,214,336.6,189.8,336.6z M190.2,329.5c28.6,0,57.3,0,85.9,0c6.9,0,6.9,0,4.2-6.2c-6.5-14.6-3.4-12.5-19.1-12.5
		c-3.9,0-6.4-1.3-8.9-4.2c-13.7-16.7-27.7-33.2-41.5-49.9c-1.8-2.2-3.2-2.9-6.1-1.5c-9.4,4.2-19.2,4.2-28.6,0.2
		c-3.4-1.5-4.9-0.7-7,1.8c-13.9,16.8-28,33.5-41.9,50.2c-2,2.4-4.1,3.4-7.2,3.4c-17.1,0.1-13.2-2.4-20.5,13.5
		c-2.3,5.2-2.2,5.2,3.8,5.2C132.3,329.5,161.3,329.5,190.2,329.5z M219.4,222c0-16.2-12.9-29.2-29-29.4
		c-16.3-0.1-29.6,13.1-29.5,29.4c0.1,16,13.2,29.1,29.3,29.2C206.3,251.2,219.4,238.1,219.4,222z M316.3,225.8
		C316.3,225.8,316.3,225.7,316.3,225.8c-17.5,0-35,0.1-52.5-0.1c-4.5,0-4.9,1.3-2.7,4.7c2.2,3.4,4.6,6.6,7.9,8.9
		c26.1,18.4,53.7,19.3,82.4,7.1c7.7-3.3,14.5-8.3,18.9-15.7c2.6-4.4,2.3-4.9-2.6-4.9C350.7,225.8,333.5,225.8,316.3,225.8z
		 M65.3,225.7c-17.6,0-35.3,0.1-52.9-0.1c-4,0-4.3,1.2-2.5,4.2c1.8,3,3.9,5.7,6.6,8.1c20.6,17.8,57.5,21.6,83.5,8.7
		c7.7-3.8,14.8-8.3,19.4-15.9c2.6-4.4,2.3-4.9-2.6-4.9C99.6,225.7,82.5,225.7,65.3,225.7z"/>
	<path d="M3.4,102.7c0-21.8,7.7-38.9,18.8-54.8C37.5,26.2,57.5,10.6,82.9,2.2c7.2-2.4,8.7-1.1,7.5,6.3c-2.7,16.3,0,30.8,11.8,43.5
		c11.9,12.7,20.2,27.8,23.1,45.2c4.2,24.7-3.5,45.7-20.9,63.3c-8.7,8.9-19,15.7-30.4,20.6c-4,1.7-4.5,3.5-2.5,7
		c1.6,2.9,2.8,6,4.1,9.1c1,2.2,1,4.4-1.6,5.4c-2.5,0.9-4.3-0.3-4.9-2.8c-3.5-13.6-13-21.4-24.4-28.7C25.8,159,12.4,141.9,6.1,120
		C4.2,113.7,3.3,107.3,3.4,102.7z M57.3,170.7c0-1,0.1-1.6,0-2.2c-4.3-16.2-6.1-32.7-5.9-49.5c0-2.4-1.1-4.1-2.3-5.8
		c-6.5-9-11.4-18.7-13.9-29.6c-0.6-2.9-1-5.7,2.5-6.3c3.3-0.6,3.9,2.3,4.4,4.8c1.3,6.1,3.7,11.7,6.6,17.2c0.6,1.1,0.9,2.8,2.7,2.3
		c1.5-0.4,0.9-2,1.1-3c1.3-8.6,2.4-17.2,4-25.7c1.5-8.2,3.5-16.3,5.4-24.4c0.5-2.3,1.8-4.2,4.5-3.5c2.6,0.7,3.1,2.7,2.4,5.1
		c-0.5,1.6-0.8,3.2-1.2,4.8c-7.2,30.1-11.8,60.5-7.4,91.6c0.2,1.4-0.6,3.5,1.2,3.9c1.5,0.3,2.4-1.6,3.4-2.6c8.4-8.6,16-17.8,22-28.3
		c1.3-2.2,2.8-4,5.6-2.3c2.4,1.5,1.9,3.6,0.7,5.7c-0.7,1.2-1.3,2.3-2,3.5c-6,9.7-12.7,19.1-21.3,26.3c-7.2,6-7.2,11.9-4.3,19.5
		c1.2,3.1,2.3,4.2,5.7,2.6c8.1-3.9,16-8.4,22.8-14.3c16.3-14.1,26.2-31.4,25.2-53.6c-0.9-19.7-9.8-36.3-22.7-50.5
		c-10.7-11.8-15-25.2-14.2-40.7c0.3-6,0.2-6.1-5.4-3.6C47.7,24.7,27.4,46.3,15.4,75.6c-6.1,15-6.7,30.5-1.3,45.9
		c6.1,17.6,17.6,31.2,32.2,42.3C49.6,166.3,52.9,169.1,57.3,170.7z"/>
	<path d="M331.3,199c-8,0-16,0.1-24,0c-10.1-0.1-16.5-6.1-17.2-16.2c-0.2-3-1.3-3.6-3.9-3.5c-10.5,0.1-21,0.1-31.5,0
		c-24.1-0.2-43.2-19-43.5-42.5c-0.3-25.2,17.5-44.4,42.1-45.3c2.9-0.1,4.3-0.8,5.3-3.8c7-20.4,24.7-33.2,45.7-33.2
		c21.4,0,38.8,12.4,46.1,33.2c1,2.9,2.4,3.7,5.3,3.8c20,0.6,36.3,14,41,33.3c4.8,19.4-3.9,39.4-21.4,48.9c-2.9,1.6-4.2,2.8-3.4,6.7
		c1.8,9.2-5.7,18-15.2,18.4C348.3,199.2,339.8,198.9,331.3,199C331.3,199,331.3,199,331.3,199z M330.9,192c8,0,16,0.2,24,0
		c8.2-0.2,12.3-7.1,8.9-14.3c-2.5-5.1-2.2-5.9,3.2-7.9c8.3-3.1,14.6-8.5,19-16.1c14.1-24.4-3.1-54.6-31.2-55
		c-9.9-0.1-8.3,0.5-11-8.4c-5.6-18-22.2-29.5-41.1-28.7c-18.2,0.7-33.4,13-38.1,31.3c-1.1,4.4-3,6.2-7.5,5.8
		c-4.3-0.3-8.6,0-12.9,1.3c-17.4,5.4-28.2,22.3-25.7,40.2c2.6,18.6,16.9,31.4,35.9,31.8c11.2,0.3,22.3,0.1,33.5,0.1
		c9.1,0,9.1,0,9.3,9c0.2,7.4,3.7,10.8,11.2,10.9C315.9,192.1,323.4,192,330.9,192z"/>
	<path class="st3" d="M316.3,225.8c17.2,0,34.3,0,51.5,0c5,0,5.3,0.5,2.6,4.9c-4.5,7.4-11.2,12.4-18.9,15.7
		c-28.7,12.2-56.3,11.3-82.4-7.1c-3.3-2.3-5.7-5.5-7.9-8.9c-2.2-3.4-1.9-4.8,2.7-4.7C281.4,225.8,298.8,225.7,316.3,225.8
		C316.3,225.7,316.3,225.8,316.3,225.8z"/>
	<path class="st3" d="M65.3,225.7c17.1,0,34.3,0,51.4,0c4.9,0,5.2,0.6,2.6,4.9c-4.6,7.6-11.7,12.1-19.4,15.9
		c-26,12.9-62.9,9.1-83.5-8.7c-2.7-2.3-4.8-5-6.6-8.1c-1.8-3-1.5-4.3,2.5-4.2C30,225.8,47.7,225.7,65.3,225.7z"/>
	<path class="st4" d="M57.3,170.7c-4.4-1.5-7.7-4.3-11.1-6.9c-14.7-11.1-26.1-24.6-32.2-42.3C8.7,106,9.2,90.6,15.4,75.6
		C27.4,46.3,47.7,24.7,77,12c5.6-2.4,5.7-2.3,5.4,3.6c-0.8,15.5,3.5,28.9,14.2,40.7c12.9,14.2,21.8,30.7,22.7,50.5
		c1,22.2-8.9,39.5-25.2,53.6c-6.8,5.9-14.7,10.4-22.8,14.3c-3.3,1.6-4.5,0.6-5.7-2.6c-3-7.6-2.9-13.5,4.3-19.5
		c8.6-7.2,15.4-16.6,21.3-26.3c0.7-1.1,1.4-2.3,2-3.5c1.2-2.1,1.7-4.2-0.7-5.7c-2.7-1.7-4.3,0.1-5.6,2.3c-6,10.5-13.6,19.7-22,28.3
		c-1,1-1.9,2.9-3.4,2.6c-1.8-0.4-1.1-2.5-1.2-3.9c-4.4-31.1,0.2-61.4,7.4-91.6c0.4-1.6,0.8-3.2,1.2-4.8c0.7-2.5,0.2-4.5-2.4-5.1
		c-2.8-0.7-4,1.2-4.5,3.5C60,56.6,58,64.7,56.4,72.8c-1.6,8.5-2.6,17.1-4,25.7c-0.2,1,0.5,2.6-1.1,3c-1.8,0.5-2.2-1.3-2.7-2.3
		C45.8,93.7,43.4,88,42.1,82c-0.5-2.6-1.2-5.4-4.4-4.8c-3.6,0.6-3.2,3.5-2.5,6.3c2.5,10.9,7.4,20.6,13.9,29.6
		c1.3,1.8,2.4,3.4,2.3,5.8c-0.3,16.7,1.6,33.2,5.9,49.5C57.4,169,57.3,169.7,57.3,170.7z"/>
	<path d="M291.3,132.3c0-4.3,0-8.7,0-13c0-1.5,0.1-3,0.5-4.4c2.5-9.2,11-12.9,25.8-11.1c8,0.9,13.5,6.9,13.6,15.3
		c0.2,8.8,0.2,17.7,0,26.5c-0.2,8.9-6.5,14.9-15.3,15.1c-3.3,0.1-6.7,0.1-10,0c-8.3-0.4-14.3-6.5-14.6-14.8
		C291.2,141.3,291.3,136.8,291.3,132.3z M324.1,132.6c0-4.5,0.1-9,0-13.5c-0.2-4.9-3.3-8-8.1-8.3c-11.8-0.8-16.4,0.9-17.5,6.8
		c-0.1,0.5-0.1,1-0.1,1.5c0,8.8-0.2,17.6,0,26.4c0.1,4.9,3.3,7.7,8.3,8.1c11.1,0.9,16.1-1,17.3-6.6c0.2-1.1,0.2-2.3,0.2-3.5
		C324.2,139.9,324.1,136.2,324.1,132.6z"/>
	<path d="M255.4,132.4c0,4-0.1,8,0,12c0,1.5,0.1,3.1,0.7,4.4c3.8,7.2,10.7,4.5,16.5,4.7c4.3,0.2,7.3-2.1,8.2-6.6
		c0.5-2.6,1-5.3,4.5-4.6c3.7,0.8,3.1,3.7,2.5,6.4c-0.2,1-0.5,1.9-0.9,2.9c-3.4,8-13.3,11.3-26.3,8.9c-7.6-1.4-12.4-7.7-12.4-16.3
		c0-8.2-0.1-16.3,0-24.5c0.1-9.7,6.2-15.8,16-16c3.2-0.1,6.3-0.1,9.5,0c7.5,0.4,13.3,5.7,14.4,12.9c0.4,2.5,0.2,4.9-2.8,5.5
		c-2.7,0.5-3.7-1.3-4.3-3.7c-1.5-6-3.7-7.6-9.8-7.6c-14.9-0.2-15.8,0.7-15.8,15.7C255.4,128.4,255.4,130.4,255.4,132.4z"/>
	<path d="M351.5,164.4c-15.6,0-14,1.6-14-13.8c0-1.2,0.1-2.3,0-3.5c-0.5-4.7,1.5-6.8,6.3-6.4c3.8,0.3,7.7-0.1,11.5,0.1
		c3.7,0.1,2.9-2.4,2.8-4.4c-0.1-2,1.3-5-2.8-4.9c-4.2,0.1-8.3,0-12.5,0c-2.5,0-5-0.5-5.1-3.5c-0.1-3.3,2.6-3.8,5.3-3.8
		c5.7,0,11.3,0.1,17,0c3.5-0.1,5.2,1.5,5.2,5.1c-0.1,4.5-0.1,9,0,13.5c0,3.5-1.4,5.2-5.1,5.1c-4-0.2-8,0.2-12-0.1
		c-3.8-0.2-3.5,2.1-3.4,4.5c0.1,2.4-0.8,5.2,3.4,5c4.2-0.2,8.3,0,12.5,0c2.4,0,4.4,0.8,4.4,3.6c0,2.7-2,3.6-4.5,3.6
		C357.5,164.4,354.5,164.4,351.5,164.4z"/>
</g>
</svg>
